<?xml version="1.0" encoding="utf-8"?>
<!-- Generator: Adobe Illustrator 15.1.0, SVG Export Plug-In . SVG Version: 6.00 Build 0)  -->
<!DOCTYPE svg PUBLIC "-//W3C//DTD SVG 1.1//EN" "http://www.w3.org/Graphics/SVG/1.1/DTD/svg11.dtd">
<svg version="1.1" id="Camada_1" xmlns="http://www.w3.org/2000/svg" xmlns:xlink="http://www.w3.org/1999/xlink" x="0px" y="0px"
	 width="139.249px" height="32.95px" viewBox="0 5.493 139.249 32.95" enable-background="new 0 5.493 139.249 32.95"
	 xml:space="preserve">
<g>
	<g>
		<path fill="#FFFFFF" d="M47.637,29.646c-0.241,0-0.461-0.035-0.665-0.104c-0.201-0.07-0.377-0.178-0.52-0.316
			c-0.148-0.143-0.26-0.314-0.337-0.523c-0.082-0.208-0.122-0.451-0.122-0.726c0-0.253,0.038-0.485,0.114-0.692
			c0.076-0.209,0.187-0.386,0.333-0.535c0.139-0.142,0.312-0.253,0.52-0.331c0.208-0.077,0.433-0.116,0.676-0.116
			c0.135,0,0.258,0.008,0.367,0.024c0.111,0.015,0.209,0.035,0.301,0.06c0.097,0.025,0.186,0.057,0.261,0.092l0.207,0.092v0.781
			H48.68l-0.152-0.121l-0.208-0.143c-0.079-0.045-0.167-0.084-0.258-0.115c-0.091-0.031-0.19-0.047-0.295-0.047
			c-0.118,0-0.228,0.019-0.334,0.054c-0.103,0.038-0.2,0.1-0.291,0.185c-0.085,0.082-0.154,0.189-0.206,0.324
			c-0.052,0.135-0.081,0.3-0.081,0.494c0,0.201,0.03,0.366,0.087,0.504c0.056,0.135,0.128,0.24,0.215,0.318s0.185,0.135,0.293,0.171
			c0.107,0.032,0.212,0.05,0.319,0.05c0.102,0,0.201-0.018,0.298-0.048c0.1-0.028,0.191-0.068,0.274-0.12l0.198-0.133l0.151-0.123
			h0.083v0.769c-0.079,0.036-0.155,0.071-0.23,0.103c-0.073,0.032-0.148,0.059-0.229,0.082c-0.106,0.028-0.203,0.053-0.295,0.068
			C47.923,29.637,47.798,29.646,47.637,29.646z"/>
		<path fill="#FFFFFF" d="M50.841,28.961c0.047-0.061,0.088-0.135,0.111-0.223c0.025-0.087,0.036-0.207,0.036-0.361
			c0-0.142-0.011-0.265-0.037-0.359c-0.026-0.097-0.063-0.175-0.109-0.231l-0.167-0.123l-0.208-0.04l-0.2,0.033l-0.168,0.12
			c-0.048,0.052-0.086,0.132-0.112,0.229c-0.028,0.1-0.044,0.223-0.044,0.371c0,0.133,0.011,0.248,0.037,0.344
			c0.024,0.099,0.06,0.177,0.108,0.233l0.166,0.126c0.065,0.025,0.136,0.037,0.219,0.037l0.202-0.035L50.841,28.961L50.841,28.961z
			 M51.795,28.373L51.795,28.373c0,0.398-0.113,0.711-0.347,0.943c-0.233,0.231-0.56,0.345-0.98,0.345s-0.747-0.113-0.981-0.345
			c-0.234-0.232-0.35-0.545-0.35-0.943c0-0.402,0.119-0.717,0.352-0.949c0.234-0.227,0.562-0.343,0.979-0.343
			c0.423,0,0.75,0.116,0.981,0.348C51.682,27.658,51.795,27.972,51.795,28.373z"/>
		<path fill="#FFFFFF" d="M54.767,29.583h-0.781v-1.204c0-0.096-0.007-0.193-0.014-0.29c-0.01-0.1-0.028-0.173-0.052-0.216
			l-0.126-0.115c-0.055-0.026-0.132-0.041-0.233-0.041l-0.215,0.036c-0.073,0.023-0.151,0.062-0.238,0.11v1.72h-0.779v-2.427h0.779
			v0.268c0.139-0.105,0.273-0.189,0.398-0.246c0.128-0.059,0.27-0.09,0.426-0.09c0.26,0,0.467,0.078,0.612,0.232
			c0.149,0.151,0.223,0.381,0.223,0.684V29.583z"/>
		<path fill="#FFFFFF" d="M57.565,28.814c0,0.251-0.112,0.454-0.339,0.605c-0.222,0.154-0.531,0.232-0.922,0.232
			c-0.215,0-0.412-0.021-0.587-0.063c-0.176-0.04-0.315-0.082-0.423-0.135v-0.639h0.072l0.136,0.093
			c0.049,0.03,0.121,0.066,0.215,0.104c0.081,0.033,0.173,0.061,0.274,0.082c0.103,0.023,0.213,0.038,0.329,0.038
			c0.155,0,0.268-0.019,0.339-0.052l0.111-0.149l-0.065-0.13c-0.045-0.025-0.126-0.052-0.249-0.076
			c-0.057-0.014-0.135-0.027-0.234-0.042c-0.098-0.015-0.187-0.033-0.27-0.054c-0.218-0.061-0.383-0.147-0.491-0.271
			c-0.105-0.122-0.157-0.271-0.157-0.456c0-0.232,0.109-0.428,0.33-0.582c0.221-0.156,0.525-0.234,0.907-0.234
			c0.18,0,0.356,0.02,0.523,0.057c0.165,0.039,0.296,0.078,0.388,0.119v0.612h-0.065c-0.116-0.078-0.248-0.142-0.395-0.194
			c-0.148-0.047-0.298-0.073-0.448-0.073c-0.125,0-0.232,0.017-0.318,0.055c-0.084,0.033-0.128,0.083-0.128,0.144l0.057,0.133
			c0.041,0.031,0.131,0.062,0.274,0.09c0.081,0.017,0.163,0.033,0.258,0.047c0.091,0.018,0.185,0.033,0.277,0.058
			c0.203,0.054,0.354,0.137,0.453,0.253C57.517,28.5,57.565,28.644,57.565,28.814z"/>
		<path fill="#FFFFFF" d="M59.672,28.06c-0.004-0.164-0.043-0.289-0.123-0.369c-0.074-0.083-0.192-0.123-0.354-0.123
			c-0.15,0-0.274,0.038-0.37,0.113c-0.097,0.08-0.153,0.206-0.161,0.379H59.672L59.672,28.06z M60.446,28.513L60.446,28.513h-1.781
			c0.013,0.189,0.084,0.336,0.218,0.438c0.136,0.102,0.33,0.152,0.587,0.152c0.166,0,0.324-0.031,0.478-0.09
			c0.158-0.057,0.278-0.123,0.367-0.189h0.087v0.624c-0.176,0.073-0.343,0.123-0.498,0.151c-0.156,0.033-0.328,0.05-0.517,0.05
			c-0.487,0-0.861-0.108-1.121-0.329c-0.259-0.217-0.388-0.531-0.388-0.936c0-0.4,0.123-0.717,0.368-0.951
			c0.245-0.236,0.584-0.353,1.011-0.353c0.395,0,0.69,0.1,0.889,0.3c0.202,0.199,0.299,0.485,0.299,0.861V28.513z"/>
		<rect x="60.969" y="26.22" fill="#FFFFFF" width="0.78" height="3.362"/>
		<path fill="#FFFFFF" d="M64.896,29.583h-0.779v-1.204c0-0.096-0.007-0.193-0.019-0.29c-0.01-0.1-0.026-0.173-0.051-0.216
			l-0.125-0.115c-0.059-0.026-0.132-0.041-0.234-0.041l-0.216,0.036c-0.071,0.023-0.15,0.062-0.234,0.11v1.72h-0.783V26.22h0.783
			v1.203c0.139-0.105,0.27-0.189,0.397-0.246c0.126-0.059,0.269-0.09,0.426-0.09c0.26,0,0.463,0.078,0.611,0.232
			c0.147,0.151,0.223,0.381,0.223,0.684V29.583z"/>
		<path fill="#FFFFFF" d="M67.108,28.961c0.05-0.061,0.087-0.135,0.113-0.223c0.026-0.087,0.037-0.207,0.037-0.361
			c0-0.142-0.01-0.265-0.039-0.359c-0.024-0.097-0.062-0.175-0.109-0.231l-0.163-0.123l-0.21-0.04l-0.199,0.033l-0.17,0.12
			c-0.046,0.052-0.085,0.132-0.113,0.229c-0.029,0.1-0.043,0.223-0.043,0.371c0,0.133,0.013,0.248,0.035,0.344
			c0.028,0.099,0.063,0.177,0.112,0.233l0.166,0.126c0.063,0.025,0.137,0.037,0.22,0.037l0.201-0.035L67.108,28.961L67.108,28.961z
			 M68.066,28.373L68.066,28.373c0,0.398-0.117,0.711-0.35,0.943c-0.233,0.231-0.558,0.345-0.979,0.345
			c-0.423,0-0.75-0.113-0.98-0.345c-0.234-0.232-0.35-0.545-0.35-0.943c0-0.402,0.116-0.717,0.352-0.949
			c0.234-0.227,0.56-0.343,0.979-0.343c0.421,0,0.75,0.116,0.982,0.348C67.949,27.658,68.066,27.972,68.066,28.373z"/>
		<path fill="#FFFFFF" d="M71.933,27.351c0-0.081-0.019-0.15-0.051-0.207c-0.033-0.059-0.09-0.104-0.174-0.137l-0.195-0.043
			c-0.074-0.004-0.161-0.006-0.262-0.006h-0.299v0.865h0.255c0.134,0,0.244-0.003,0.333-0.02c0.09-0.012,0.166-0.04,0.225-0.088
			l0.127-0.148C71.918,27.513,71.933,27.443,71.933,27.351L71.933,27.351z M73.228,29.583L73.228,29.583h-1.014l-0.876-1.178h-0.385
			v1.178h-0.825v-3.216h1.392c0.19,0,0.354,0.01,0.492,0.031c0.136,0.021,0.265,0.068,0.386,0.139
			c0.121,0.074,0.217,0.166,0.289,0.281c0.068,0.113,0.106,0.258,0.106,0.431c0,0.239-0.057,0.433-0.166,0.582
			c-0.108,0.151-0.27,0.274-0.473,0.374L73.228,29.583z"/>
		<path fill="#FFFFFF" d="M75.136,28.06c-0.002-0.164-0.045-0.289-0.12-0.369c-0.077-0.083-0.197-0.123-0.358-0.123
			c-0.149,0-0.273,0.038-0.37,0.113c-0.097,0.08-0.147,0.206-0.161,0.379H75.136L75.136,28.06z M75.912,28.513L75.912,28.513H74.13
			c0.013,0.189,0.083,0.336,0.215,0.438c0.136,0.102,0.331,0.152,0.59,0.152c0.165,0,0.325-0.031,0.478-0.09
			c0.156-0.057,0.277-0.123,0.367-0.189h0.086v0.624c-0.176,0.073-0.342,0.123-0.497,0.151c-0.157,0.033-0.331,0.05-0.517,0.05
			c-0.487,0-0.86-0.108-1.119-0.329c-0.26-0.217-0.39-0.531-0.39-0.936c0-0.4,0.122-0.717,0.369-0.951
			c0.245-0.236,0.582-0.353,1.009-0.353c0.396,0,0.691,0.1,0.893,0.3c0.197,0.199,0.298,0.485,0.298,0.861V28.513z"/>
		<path fill="#FFFFFF" d="M78.013,28.819v-1.1l-0.163-0.045l-0.174-0.015c-0.202,0-0.358,0.057-0.46,0.176
			c-0.103,0.115-0.152,0.279-0.152,0.489c0,0.233,0.043,0.397,0.13,0.489c0.086,0.095,0.215,0.14,0.385,0.14l0.231-0.038
			L78.013,28.819L78.013,28.819z M78.795,29.304L78.795,29.304c0,0.229-0.032,0.42-0.1,0.576c-0.063,0.156-0.152,0.279-0.27,0.364
			c-0.116,0.09-0.259,0.153-0.422,0.196c-0.167,0.038-0.353,0.057-0.561,0.057c-0.168,0-0.334-0.01-0.498-0.03
			c-0.164-0.019-0.305-0.043-0.426-0.071v-0.607h0.096c0.095,0.035,0.209,0.068,0.349,0.102c0.135,0.031,0.257,0.047,0.367,0.047
			c0.143,0,0.261-0.014,0.351-0.04c0.091-0.028,0.159-0.065,0.206-0.113l0.096-0.177c0.021-0.074,0.029-0.159,0.029-0.261v-0.045
			c-0.095,0.075-0.197,0.138-0.31,0.18c-0.115,0.045-0.239,0.068-0.381,0.068c-0.339,0-0.602-0.102-0.785-0.308
			c-0.186-0.203-0.278-0.516-0.278-0.932c0-0.203,0.028-0.373,0.084-0.52c0.058-0.145,0.136-0.272,0.24-0.381
			c0.093-0.102,0.21-0.18,0.35-0.236c0.14-0.055,0.28-0.086,0.428-0.086c0.129,0,0.25,0.018,0.356,0.048
			c0.105,0.03,0.205,0.073,0.292,0.132l0.028-0.111h0.757V29.304z"/>
		<path fill="#FFFFFF" d="M80.284,29.583h-0.783v-2.427h0.783V29.583L80.284,29.583z M80.304,26.811L80.304,26.811H79.48V26.22
			h0.824V26.811z"/>
		<path fill="#FFFFFF" d="M82.514,28.961c0.049-0.061,0.087-0.135,0.113-0.223c0.025-0.087,0.038-0.207,0.038-0.361
			c0-0.142-0.013-0.265-0.041-0.359c-0.026-0.097-0.062-0.175-0.106-0.231l-0.169-0.123l-0.207-0.04l-0.202,0.033l-0.164,0.12
			c-0.05,0.052-0.09,0.132-0.116,0.229c-0.028,0.1-0.04,0.223-0.04,0.371c0,0.133,0.011,0.248,0.036,0.344
			c0.023,0.099,0.062,0.177,0.106,0.233l0.166,0.126c0.065,0.025,0.139,0.037,0.221,0.037l0.201-0.035L82.514,28.961L82.514,28.961z
			 M83.472,28.373L83.472,28.373c0,0.398-0.116,0.711-0.349,0.943c-0.233,0.231-0.561,0.345-0.98,0.345
			c-0.421,0-0.747-0.113-0.98-0.345c-0.235-0.232-0.351-0.545-0.351-0.943c0-0.402,0.116-0.717,0.351-0.949
			c0.234-0.227,0.559-0.343,0.98-0.343s0.751,0.116,0.98,0.348C83.356,27.658,83.472,27.972,83.472,28.373z"/>
		<path fill="#FFFFFF" d="M86.44,29.583H85.66v-1.204c0-0.096-0.005-0.193-0.014-0.29c-0.012-0.1-0.026-0.173-0.052-0.216
			l-0.127-0.115c-0.055-0.026-0.133-0.041-0.231-0.041l-0.216,0.036c-0.072,0.023-0.151,0.062-0.235,0.11v1.72h-0.783v-2.427h0.783
			v0.268c0.138-0.105,0.27-0.189,0.397-0.246c0.125-0.059,0.268-0.09,0.425-0.09c0.262,0,0.467,0.078,0.613,0.232
			c0.148,0.151,0.22,0.381,0.22,0.684V29.583z"/>
		<path fill="#FFFFFF" d="M88.601,28.949v-0.506c-0.106,0.01-0.22,0.023-0.34,0.037c-0.123,0.015-0.218,0.031-0.281,0.055
			l-0.178,0.104l-0.061,0.185l0.012,0.123l0.065,0.092l0.119,0.062c0.049,0.015,0.119,0.021,0.217,0.021l0.236-0.048
			C88.47,29.044,88.541,29.002,88.601,28.949L88.601,28.949z M88.601,29.328L88.601,29.328l-0.158,0.115l-0.175,0.106
			c-0.077,0.033-0.153,0.058-0.236,0.075c-0.082,0.018-0.172,0.024-0.27,0.024c-0.232,0-0.423-0.071-0.579-0.213
			c-0.156-0.144-0.234-0.326-0.234-0.549c0-0.177,0.042-0.321,0.118-0.435c0.081-0.111,0.192-0.201,0.338-0.266
			c0.142-0.066,0.323-0.108,0.537-0.137c0.212-0.028,0.433-0.047,0.661-0.062v-0.015c0-0.132-0.053-0.225-0.162-0.276
			s-0.272-0.075-0.485-0.075c-0.126,0-0.264,0.021-0.409,0.068c-0.146,0.045-0.251,0.08-0.314,0.104h-0.071v-0.586
			c0.082-0.021,0.215-0.047,0.398-0.076c0.188-0.03,0.373-0.047,0.559-0.047c0.44,0,0.762,0.07,0.957,0.205
			c0.198,0.138,0.297,0.351,0.297,0.642v1.65h-0.771V29.328z"/>
		<rect x="90.061" y="26.22" fill="#FFFFFF" width="0.779" height="3.362"/>
		<path fill="#FFFFFF" d="M94.615,28.916v-1.191l-0.172-0.053l-0.168-0.014c-0.205,0-0.354,0.064-0.458,0.191
			c-0.103,0.128-0.156,0.305-0.156,0.532c0,0.239,0.044,0.411,0.124,0.519c0.084,0.107,0.214,0.162,0.398,0.162l0.223-0.042
			L94.615,28.916L94.615,28.916z M95.397,29.583L95.397,29.583h-0.782v-0.251c-0.133,0.109-0.259,0.189-0.377,0.242
			c-0.118,0.051-0.25,0.078-0.404,0.078c-0.293,0-0.53-0.114-0.707-0.344c-0.179-0.227-0.268-0.531-0.268-0.92
			c0-0.205,0.032-0.388,0.089-0.546c0.063-0.161,0.143-0.298,0.249-0.411c0.097-0.109,0.214-0.194,0.355-0.251
			c0.14-0.06,0.277-0.093,0.419-0.093c0.145,0,0.264,0.018,0.355,0.048c0.095,0.03,0.192,0.071,0.289,0.118V26.22h0.782V29.583z"/>
		<path fill="#FFFFFF" d="M97.719,28.06c-0.002-0.164-0.041-0.289-0.118-0.369c-0.078-0.083-0.196-0.123-0.36-0.123
			c-0.147,0-0.271,0.038-0.369,0.113c-0.096,0.08-0.15,0.206-0.163,0.379H97.719L97.719,28.06z M98.495,28.513L98.495,28.513h-1.781
			c0.012,0.189,0.081,0.336,0.217,0.438c0.136,0.102,0.33,0.152,0.59,0.152c0.164,0,0.322-0.031,0.475-0.09
			c0.155-0.057,0.278-0.123,0.366-0.189h0.09v0.624c-0.178,0.073-0.342,0.123-0.5,0.151c-0.155,0.033-0.329,0.05-0.515,0.05
			c-0.487,0-0.861-0.108-1.12-0.329c-0.259-0.217-0.389-0.531-0.389-0.936c0-0.4,0.123-0.717,0.369-0.951
			c0.244-0.236,0.584-0.353,1.011-0.353c0.393,0,0.689,0.1,0.888,0.3c0.199,0.199,0.3,0.485,0.3,0.861V28.513z"/>
		<polygon fill="#FFFFFF" points="102.877,29.583 100.545,29.583 100.545,26.365 102.877,26.365 102.877,26.989 101.374,26.989 
			101.374,27.545 102.768,27.545 102.768,28.166 101.374,28.166 101.374,28.961 102.877,28.961 		"/>
		<path fill="#FFFFFF" d="M105.939,29.583h-0.78v-1.204c0-0.096-0.006-0.193-0.015-0.29c-0.01-0.1-0.027-0.173-0.053-0.216
			l-0.125-0.115c-0.056-0.026-0.132-0.041-0.233-0.041l-0.216,0.036c-0.07,0.023-0.15,0.062-0.235,0.11v1.72h-0.78v-2.427h0.78
			v0.268c0.14-0.105,0.272-0.189,0.398-0.246c0.127-0.059,0.27-0.09,0.424-0.09c0.261,0,0.467,0.078,0.615,0.232
			c0.147,0.151,0.22,0.381,0.22,0.684V29.583z"/>
		<path fill="#FFFFFF" d="M108.21,28.819v-1.1l-0.164-0.045l-0.176-0.015c-0.203,0-0.357,0.057-0.459,0.176
			c-0.1,0.115-0.155,0.279-0.155,0.489c0,0.233,0.045,0.397,0.135,0.489c0.086,0.095,0.214,0.14,0.385,0.14l0.229-0.038
			L108.21,28.819L108.21,28.819z M108.991,29.304L108.991,29.304c0,0.229-0.035,0.42-0.098,0.576
			c-0.064,0.156-0.158,0.279-0.273,0.364c-0.117,0.09-0.26,0.153-0.422,0.196c-0.165,0.038-0.35,0.057-0.561,0.057
			c-0.168,0-0.333-0.01-0.497-0.03c-0.165-0.019-0.305-0.043-0.424-0.071v-0.607h0.093c0.098,0.035,0.211,0.068,0.349,0.102
			c0.137,0.031,0.26,0.047,0.367,0.047c0.143,0,0.261-0.014,0.35-0.04c0.091-0.028,0.159-0.065,0.208-0.113l0.096-0.177
			c0.021-0.074,0.031-0.159,0.031-0.261v-0.045c-0.094,0.075-0.197,0.138-0.311,0.18c-0.113,0.045-0.242,0.068-0.38,0.068
			c-0.339,0-0.603-0.102-0.785-0.308c-0.186-0.203-0.278-0.516-0.278-0.932c0-0.203,0.027-0.373,0.085-0.52
			c0.056-0.145,0.135-0.272,0.235-0.381c0.096-0.102,0.214-0.18,0.353-0.236c0.139-0.055,0.282-0.086,0.428-0.086
			c0.13,0,0.249,0.018,0.354,0.048c0.11,0.03,0.207,0.073,0.297,0.132l0.026-0.111h0.758V29.304z"/>
		<path fill="#FFFFFF" d="M111.317,28.06c-0.008-0.164-0.047-0.289-0.121-0.369c-0.078-0.083-0.197-0.123-0.359-0.123
			c-0.148,0-0.275,0.038-0.371,0.113c-0.096,0.08-0.148,0.206-0.162,0.379H111.317L111.317,28.06z M112.089,28.513L112.089,28.513
			h-1.781c0.012,0.189,0.086,0.336,0.219,0.438c0.131,0.102,0.332,0.152,0.59,0.152c0.162,0,0.322-0.031,0.479-0.09
			c0.154-0.057,0.273-0.123,0.363-0.189h0.086v0.624c-0.176,0.073-0.34,0.123-0.498,0.151c-0.158,0.033-0.328,0.05-0.518,0.05
			c-0.486,0-0.859-0.108-1.119-0.329c-0.258-0.217-0.387-0.531-0.387-0.936c0-0.4,0.123-0.717,0.367-0.951
			c0.244-0.236,0.582-0.353,1.01-0.353c0.396,0,0.695,0.1,0.893,0.3c0.199,0.199,0.297,0.485,0.297,0.861V28.513z"/>
		<path fill="#FFFFFF" d="M115.05,29.583h-0.779v-1.204c0-0.096-0.006-0.193-0.014-0.29c-0.01-0.1-0.027-0.173-0.053-0.216
			l-0.127-0.115c-0.055-0.026-0.135-0.041-0.232-0.041l-0.215,0.036c-0.074,0.023-0.152,0.062-0.238,0.11v1.72h-0.779v-2.427h0.779
			v0.268c0.141-0.105,0.273-0.189,0.398-0.246c0.129-0.059,0.27-0.09,0.428-0.09c0.258,0,0.465,0.078,0.611,0.232
			c0.148,0.151,0.221,0.381,0.221,0.684V29.583z"/>
		<path fill="#FFFFFF" d="M118.178,29.583h-0.779v-1.204c0-0.096-0.006-0.193-0.018-0.29c-0.01-0.1-0.027-0.173-0.051-0.216
			l-0.125-0.115c-0.055-0.026-0.133-0.041-0.232-0.041l-0.215,0.036c-0.074,0.023-0.152,0.062-0.238,0.11v1.72h-0.781V26.22h0.781
			v1.203c0.139-0.105,0.27-0.189,0.396-0.246c0.129-0.059,0.27-0.09,0.428-0.09c0.26,0,0.465,0.078,0.611,0.232
			c0.15,0.151,0.223,0.381,0.223,0.684V29.583z"/>
		<path fill="#FFFFFF" d="M120.337,28.949v-0.506c-0.105,0.01-0.217,0.023-0.342,0.037c-0.121,0.015-0.215,0.031-0.275,0.055
			l-0.182,0.104l-0.061,0.185l0.014,0.123l0.064,0.092l0.117,0.062c0.047,0.015,0.119,0.021,0.217,0.021l0.236-0.048
			C120.208,29.044,120.276,29.002,120.337,28.949L120.337,28.949z M120.337,29.328L120.337,29.328l-0.158,0.115l-0.174,0.106
			c-0.074,0.033-0.152,0.058-0.238,0.075c-0.078,0.018-0.172,0.024-0.268,0.024c-0.232,0-0.424-0.071-0.578-0.213
			c-0.158-0.144-0.234-0.326-0.234-0.549c0-0.177,0.039-0.321,0.117-0.435c0.082-0.111,0.193-0.201,0.338-0.266
			c0.145-0.066,0.324-0.108,0.537-0.137c0.211-0.028,0.434-0.047,0.664-0.062v-0.015c0-0.132-0.055-0.225-0.166-0.276
			s-0.271-0.075-0.482-0.075c-0.127,0-0.268,0.021-0.412,0.068c-0.145,0.045-0.25,0.08-0.314,0.104h-0.07v-0.586
			c0.08-0.021,0.217-0.047,0.402-0.076c0.186-0.03,0.371-0.047,0.557-0.047c0.441,0,0.76,0.07,0.957,0.205
			c0.195,0.138,0.297,0.351,0.297,0.642v1.65h-0.773V29.328z"/>
		<path fill="#FFFFFF" d="M123.555,27.899h-0.068l-0.158-0.026l-0.184-0.01c-0.107,0-0.207,0.008-0.291,0.021
			c-0.086,0.018-0.176,0.039-0.275,0.074v1.624H121.8v-2.427h0.779v0.357c0.172-0.146,0.32-0.246,0.447-0.291
			c0.125-0.049,0.242-0.075,0.348-0.075l0.096,0.003l0.086,0.006V27.899z"/>
		<path fill="#FFFFFF" d="M124.753,29.583h-0.781v-2.427h0.781V29.583L124.753,29.583z M124.774,26.811L124.774,26.811h-0.822V26.22
			h0.822V26.811z"/>
		<path fill="#FFFFFF" d="M126.93,28.949v-0.506c-0.105,0.01-0.223,0.023-0.342,0.037c-0.123,0.015-0.217,0.031-0.279,0.055
			l-0.18,0.104l-0.063,0.185l0.014,0.123l0.066,0.092l0.117,0.062c0.047,0.015,0.117,0.021,0.217,0.021l0.236-0.048
			C126.798,29.044,126.868,29.002,126.93,28.949L126.93,28.949z M126.93,29.328L126.93,29.328l-0.156,0.115l-0.176,0.106
			c-0.076,0.033-0.158,0.058-0.238,0.075c-0.082,0.018-0.172,0.024-0.27,0.024c-0.23,0-0.426-0.071-0.578-0.213
			c-0.156-0.144-0.234-0.326-0.234-0.549c0-0.177,0.043-0.321,0.121-0.435c0.076-0.111,0.191-0.201,0.332-0.266
			c0.146-0.066,0.324-0.108,0.539-0.137c0.213-0.028,0.434-0.047,0.662-0.062v-0.015c0-0.132-0.055-0.225-0.164-0.276
			s-0.27-0.075-0.482-0.075c-0.129,0-0.266,0.021-0.412,0.068c-0.145,0.045-0.25,0.08-0.313,0.104h-0.072v-0.586
			c0.084-0.021,0.217-0.047,0.4-0.076c0.188-0.03,0.369-0.047,0.559-0.047c0.441,0,0.764,0.07,0.957,0.205
			c0.199,0.138,0.297,0.351,0.297,0.642v1.65h-0.771V29.328z"/>
		<path fill="#FFFFFF" d="M60.072,34.194c-0.005-0.163-0.045-0.284-0.122-0.364c-0.078-0.085-0.196-0.123-0.357-0.123
			c-0.15,0-0.273,0.035-0.37,0.116c-0.096,0.075-0.151,0.2-0.161,0.371H60.072L60.072,34.194z M60.844,34.653L60.844,34.653h-1.779
			c0.01,0.188,0.079,0.335,0.215,0.435c0.134,0.102,0.33,0.149,0.59,0.149c0.163,0,0.324-0.026,0.479-0.085
			c0.156-0.06,0.274-0.123,0.366-0.191H60.8v0.626c-0.177,0.069-0.341,0.12-0.498,0.151c-0.156,0.033-0.329,0.047-0.518,0.047
			c-0.487,0-0.858-0.108-1.12-0.328c-0.259-0.22-0.388-0.529-0.388-0.937c0-0.399,0.123-0.716,0.368-0.95
			c0.246-0.234,0.583-0.353,1.011-0.353c0.396,0,0.693,0.099,0.891,0.3c0.199,0.199,0.298,0.488,0.298,0.863V34.653z"/>
		<path fill="#FFFFFF" d="M64.591,34.48l-0.396-1.152l-0.396,1.152H64.591L64.591,34.48z M65.872,35.721L65.872,35.721h-0.857
			l-0.225-0.649H63.6l-0.223,0.649h-0.837l1.188-3.221h0.955L65.872,35.721z"/>
		<path fill="#FFFFFF" d="M67.847,34.955v-1.1l-0.164-0.045l-0.176-0.014c-0.205,0-0.357,0.057-0.459,0.176
			c-0.1,0.115-0.152,0.281-0.152,0.491c0,0.234,0.042,0.396,0.129,0.487s0.218,0.139,0.389,0.139l0.229-0.035L67.847,34.955
			L67.847,34.955z M68.627,35.44L68.627,35.44c0,0.229-0.035,0.421-0.1,0.577c-0.064,0.156-0.155,0.276-0.271,0.367
			c-0.117,0.09-0.256,0.152-0.422,0.193c-0.166,0.04-0.354,0.059-0.561,0.059c-0.168,0-0.333-0.01-0.499-0.03
			c-0.16-0.019-0.303-0.045-0.422-0.073v-0.607h0.094c0.096,0.037,0.21,0.07,0.348,0.102c0.136,0.033,0.257,0.049,0.367,0.049
			c0.143,0,0.261-0.014,0.354-0.042c0.087-0.028,0.155-0.063,0.205-0.114l0.096-0.174c0.022-0.076,0.032-0.159,0.032-0.261v-0.048
			c-0.096,0.078-0.198,0.141-0.313,0.183c-0.114,0.042-0.24,0.066-0.381,0.066c-0.338,0-0.602-0.1-0.783-0.306
			c-0.187-0.203-0.278-0.516-0.278-0.934c0-0.201,0.027-0.373,0.085-0.52c0.056-0.145,0.135-0.272,0.237-0.381
			c0.096-0.1,0.211-0.178,0.351-0.234c0.137-0.055,0.281-0.086,0.427-0.086c0.129,0,0.252,0.018,0.356,0.048
			c0.107,0.033,0.207,0.073,0.293,0.13l0.028-0.108h0.758V35.44z"/>
		<path fill="#FFFFFF" d="M71.094,34.035h-0.07l-0.159-0.025l-0.183-0.007c-0.111,0-0.208,0.007-0.294,0.019
			c-0.086,0.017-0.175,0.041-0.274,0.076v1.624h-0.78v-2.426h0.78v0.354c0.171-0.146,0.322-0.244,0.447-0.291
			c0.126-0.049,0.243-0.076,0.351-0.076l0.091,0.006l0.091,0.007V34.035z"/>
		<path fill="#FFFFFF" d="M73.034,35.099c0.049-0.063,0.086-0.137,0.114-0.227c0.023-0.085,0.037-0.205,0.037-0.359
			c0-0.143-0.013-0.266-0.039-0.359c-0.026-0.095-0.063-0.173-0.107-0.232l-0.168-0.123l-0.208-0.037l-0.203,0.028l-0.167,0.123
			c-0.045,0.054-0.084,0.132-0.114,0.231c-0.026,0.098-0.042,0.221-0.042,0.369c0,0.135,0.012,0.248,0.037,0.346
			c0.026,0.096,0.062,0.174,0.108,0.233l0.168,0.123c0.063,0.026,0.136,0.038,0.219,0.038l0.202-0.033L73.034,35.099L73.034,35.099z
			 M73.99,34.509L73.99,34.509c0,0.399-0.116,0.714-0.347,0.943c-0.235,0.231-0.56,0.345-0.981,0.345
			c-0.423,0-0.75-0.113-0.981-0.345c-0.235-0.229-0.349-0.544-0.349-0.943c0-0.401,0.116-0.719,0.349-0.948
			c0.235-0.227,0.563-0.343,0.981-0.343c0.422,0,0.75,0.116,0.982,0.348C73.874,33.797,73.99,34.111,73.99,34.509z"/>
		<path fill="#FFFFFF" d="M76.961,35.721h-0.782v-1.204c0-0.099-0.006-0.195-0.017-0.295c-0.009-0.095-0.026-0.168-0.051-0.213
			l-0.124-0.118c-0.057-0.021-0.135-0.036-0.234-0.036l-0.214,0.036c-0.074,0.023-0.152,0.06-0.237,0.111v1.719h-0.779v-2.426h0.779
			v0.265c0.137-0.104,0.271-0.189,0.397-0.246c0.13-0.057,0.27-0.088,0.426-0.088c0.261,0,0.466,0.076,0.615,0.23
			c0.146,0.15,0.221,0.383,0.221,0.686V35.721z"/>
		<path fill="#FFFFFF" d="M79.174,35.099c0.046-0.063,0.086-0.137,0.112-0.227c0.026-0.085,0.038-0.205,0.038-0.359
			c0-0.143-0.013-0.266-0.039-0.359c-0.026-0.095-0.065-0.173-0.108-0.232l-0.168-0.123l-0.21-0.037l-0.2,0.028l-0.167,0.123
			c-0.049,0.054-0.084,0.132-0.114,0.231c-0.026,0.098-0.04,0.221-0.04,0.369c0,0.135,0.011,0.248,0.038,0.346
			c0.021,0.096,0.059,0.174,0.105,0.233l0.166,0.123c0.065,0.026,0.14,0.038,0.22,0.038l0.202-0.033L79.174,35.099L79.174,35.099z
			 M80.131,34.509L80.131,34.509c0,0.399-0.116,0.714-0.348,0.943c-0.234,0.231-0.563,0.345-0.984,0.345
			c-0.418,0-0.746-0.113-0.979-0.345c-0.231-0.229-0.346-0.544-0.346-0.943c0-0.401,0.115-0.719,0.349-0.948
			c0.234-0.227,0.561-0.343,0.977-0.343c0.425,0,0.752,0.116,0.985,0.348C80.015,33.797,80.131,34.111,80.131,34.509z"/>
		<path fill="#FFFFFF" d="M83.031,34.003v1.719h-0.778v-1.213c0-0.118-0.003-0.218-0.008-0.3c-0.005-0.086-0.022-0.152-0.047-0.203
			l-0.118-0.114c-0.052-0.023-0.128-0.036-0.223-0.036l-0.221,0.048l-0.194,0.1v1.719h-0.783v-2.426h0.783v0.265
			c0.133-0.104,0.259-0.188,0.382-0.244c0.123-0.059,0.258-0.09,0.408-0.09c0.157,0,0.299,0.036,0.421,0.109
			c0.123,0.068,0.22,0.175,0.29,0.313c0.154-0.131,0.306-0.234,0.451-0.311c0.15-0.072,0.293-0.111,0.432-0.111
			c0.264,0,0.463,0.081,0.596,0.237c0.14,0.155,0.207,0.383,0.207,0.679v1.579h-0.782v-1.213c0-0.12-0.001-0.22-0.007-0.303
			c-0.005-0.083-0.021-0.149-0.046-0.2l-0.117-0.114c-0.053-0.023-0.127-0.036-0.225-0.036l-0.19,0.033
			C83.198,33.913,83.123,33.948,83.031,34.003z"/>
		<path fill="#FFFFFF" d="M86.101,35.721h-0.78v-2.429h0.78V35.721L86.101,35.721z M86.12,32.951L86.12,32.951h-0.822v-0.592h0.822
			V32.951z"/>
		<path fill="#FFFFFF" d="M88.277,35.086v-0.504c-0.104,0.008-0.219,0.021-0.341,0.035c-0.123,0.018-0.217,0.033-0.279,0.055
			l-0.177,0.106l-0.064,0.185l0.012,0.121l0.066,0.094l0.119,0.06c0.046,0.017,0.12,0.021,0.219,0.021l0.234-0.047
			C88.148,35.179,88.216,35.14,88.277,35.086L88.277,35.086z M88.277,35.462L88.277,35.462l-0.156,0.118l-0.172,0.106
			c-0.08,0.033-0.159,0.06-0.241,0.075c-0.082,0.018-0.17,0.023-0.27,0.023c-0.231,0-0.422-0.07-0.58-0.213
			c-0.155-0.144-0.234-0.323-0.234-0.545c0-0.178,0.04-0.324,0.119-0.438c0.079-0.111,0.193-0.201,0.338-0.264
			c0.146-0.063,0.324-0.11,0.534-0.139c0.216-0.029,0.437-0.047,0.666-0.06v-0.015c0-0.135-0.056-0.227-0.164-0.275
			c-0.112-0.053-0.272-0.078-0.484-0.078c-0.127,0-0.265,0.021-0.414,0.068c-0.143,0.045-0.247,0.08-0.312,0.104h-0.071v-0.586
			c0.082-0.021,0.215-0.048,0.399-0.076c0.186-0.031,0.373-0.045,0.558-0.045c0.442,0,0.763,0.068,0.96,0.206
			c0.196,0.135,0.294,0.348,0.294,0.638v1.653h-0.772V35.462z"/>
		<path fill="#FFFFFF" d="M92.804,35.054v-1.193l-0.169-0.053l-0.171-0.014c-0.202,0-0.356,0.063-0.455,0.193
			c-0.104,0.125-0.156,0.305-0.156,0.529c0,0.24,0.043,0.412,0.122,0.519c0.084,0.108,0.215,0.163,0.398,0.163l0.222-0.04
			L92.804,35.054L92.804,35.054z M93.587,35.721L93.587,35.721h-0.783V35.47c-0.133,0.107-0.26,0.189-0.376,0.242
			c-0.116,0.052-0.25,0.075-0.403,0.075c-0.295,0-0.529-0.113-0.709-0.341c-0.175-0.227-0.263-0.534-0.263-0.922
			c0-0.205,0.027-0.385,0.088-0.549c0.06-0.158,0.143-0.295,0.245-0.408c0.101-0.107,0.217-0.192,0.357-0.252
			c0.138-0.059,0.279-0.09,0.417-0.09c0.146,0,0.264,0.018,0.359,0.048c0.091,0.033,0.188,0.071,0.285,0.118v-1.033h0.783V35.721z"
			/>
		<path fill="#FFFFFF" d="M95.817,35.099c0.051-0.063,0.087-0.137,0.114-0.227c0.026-0.085,0.039-0.205,0.039-0.359
			c0-0.143-0.015-0.266-0.041-0.359c-0.026-0.095-0.062-0.173-0.106-0.232l-0.168-0.123l-0.209-0.037l-0.202,0.028l-0.164,0.123
			c-0.05,0.054-0.084,0.132-0.116,0.231c-0.027,0.098-0.039,0.221-0.039,0.369c0,0.135,0.01,0.248,0.037,0.346
			c0.022,0.096,0.061,0.174,0.108,0.233l0.164,0.123c0.064,0.026,0.139,0.038,0.219,0.038l0.202-0.033L95.817,35.099L95.817,35.099z
			 M96.775,34.509L96.775,34.509c0,0.399-0.115,0.714-0.348,0.943c-0.234,0.231-0.561,0.345-0.981,0.345
			c-0.418,0-0.749-0.113-0.982-0.345c-0.232-0.229-0.347-0.544-0.347-0.943c0-0.401,0.115-0.719,0.349-0.948
			c0.236-0.227,0.563-0.343,0.98-0.343c0.423,0,0.749,0.116,0.982,0.348C96.66,33.797,96.775,34.111,96.775,34.509z"/>
		<path fill="#FFFFFF" d="M100.635,33.539c0-0.092-0.023-0.17-0.072-0.236l-0.171-0.135c-0.086-0.035-0.17-0.055-0.254-0.059
			c-0.082-0.003-0.189-0.006-0.33-0.006h-0.142v0.963h0.238c0.143,0,0.259-0.01,0.35-0.025c0.092-0.02,0.169-0.053,0.233-0.104
			l0.113-0.165C100.623,33.709,100.635,33.629,100.635,33.539L100.635,33.539z M101.493,33.52L101.493,33.52
			c0,0.142-0.026,0.284-0.076,0.421c-0.051,0.137-0.122,0.253-0.218,0.348c-0.127,0.125-0.271,0.223-0.428,0.289
			c-0.159,0.063-0.355,0.096-0.591,0.096h-0.516v1.048h-0.83v-3.221h1.367c0.203,0,0.377,0.021,0.518,0.055
			c0.139,0.035,0.266,0.09,0.373,0.158c0.129,0.085,0.229,0.194,0.299,0.327C101.459,33.173,101.493,33.334,101.493,33.52z"/>
		<path fill="#FFFFFF" d="M103.482,35.086v-0.504c-0.105,0.008-0.221,0.021-0.343,0.035c-0.125,0.018-0.213,0.033-0.279,0.055
			l-0.178,0.106l-0.063,0.185l0.014,0.121l0.064,0.094l0.121,0.06c0.046,0.017,0.118,0.021,0.215,0.021l0.237-0.047
			C103.351,35.179,103.423,35.14,103.482,35.086L103.482,35.086z M103.482,35.462L103.482,35.462l-0.159,0.118l-0.171,0.106
			c-0.077,0.033-0.156,0.06-0.239,0.075c-0.084,0.018-0.171,0.023-0.27,0.023c-0.232,0-0.427-0.07-0.581-0.213
			c-0.155-0.144-0.233-0.323-0.233-0.545c0-0.178,0.039-0.324,0.118-0.438c0.079-0.111,0.192-0.201,0.336-0.264
			c0.146-0.063,0.325-0.11,0.536-0.139c0.216-0.029,0.436-0.047,0.665-0.06v-0.015c0-0.135-0.056-0.227-0.162-0.275
			c-0.11-0.053-0.274-0.078-0.486-0.078c-0.128,0-0.265,0.021-0.409,0.068c-0.149,0.045-0.252,0.08-0.316,0.104h-0.068v-0.586
			c0.083-0.021,0.215-0.048,0.401-0.076c0.182-0.031,0.37-0.045,0.557-0.045c0.441,0,0.76,0.068,0.956,0.206
			c0.199,0.135,0.297,0.348,0.297,0.638v1.653h-0.771V35.462z"/>
		<path fill="#FFFFFF" d="M106.703,34.035h-0.07l-0.16-0.025l-0.182-0.007c-0.111,0-0.21,0.007-0.295,0.019
			c-0.084,0.017-0.176,0.041-0.274,0.076v1.624h-0.78v-2.426h0.78v0.354c0.174-0.146,0.322-0.244,0.448-0.291
			c0.127-0.049,0.242-0.076,0.349-0.076l0.096,0.006l0.089,0.007V34.035z"/>
		<path fill="#FFFFFF" d="M108.587,35.086v-0.504c-0.105,0.008-0.219,0.021-0.342,0.035c-0.123,0.018-0.217,0.033-0.277,0.055
			l-0.18,0.106l-0.061,0.185l0.012,0.121l0.066,0.094l0.117,0.06c0.048,0.017,0.119,0.021,0.218,0.021l0.233-0.047
			C108.456,35.179,108.526,35.14,108.587,35.086L108.587,35.086z M108.587,35.462L108.587,35.462l-0.154,0.118l-0.178,0.106
			c-0.075,0.033-0.154,0.06-0.236,0.075c-0.084,0.018-0.174,0.023-0.271,0.023c-0.231,0-0.422-0.07-0.578-0.213
			c-0.157-0.144-0.234-0.323-0.234-0.545c0-0.178,0.04-0.324,0.118-0.438c0.079-0.111,0.191-0.201,0.339-0.264
			c0.146-0.063,0.321-0.11,0.534-0.139c0.214-0.029,0.434-0.047,0.666-0.06v-0.015c0-0.135-0.057-0.227-0.166-0.275
			c-0.107-0.053-0.271-0.078-0.484-0.078c-0.128,0-0.266,0.021-0.409,0.068c-0.149,0.045-0.25,0.08-0.314,0.104h-0.071v-0.586
			c0.082-0.021,0.215-0.048,0.398-0.076c0.188-0.031,0.373-0.045,0.56-0.045c0.442,0,0.763,0.068,0.958,0.206
			c0.195,0.135,0.295,0.348,0.295,0.638v1.653h-0.771V35.462z"/>
		<path fill="#FFFFFF" d="M112.487,35.721h-0.781v-1.204c0-0.099-0.006-0.195-0.014-0.295c-0.01-0.095-0.031-0.168-0.055-0.213
			l-0.125-0.118c-0.055-0.021-0.135-0.036-0.232-0.036l-0.215,0.036c-0.072,0.023-0.152,0.06-0.236,0.111v1.719h-0.783v-2.426h0.783
			v0.265c0.139-0.104,0.27-0.189,0.398-0.246c0.125-0.057,0.266-0.088,0.422-0.088c0.262,0,0.469,0.076,0.615,0.23
			c0.148,0.15,0.223,0.383,0.223,0.686V35.721z"/>
		<path fill="#FFFFFF" d="M114.643,35.086v-0.504c-0.104,0.008-0.217,0.021-0.342,0.035c-0.121,0.018-0.213,0.033-0.279,0.055
			l-0.176,0.106l-0.061,0.185l0.008,0.121l0.07,0.094l0.117,0.06c0.047,0.017,0.119,0.021,0.219,0.021l0.234-0.047
			C114.514,35.179,114.585,35.14,114.643,35.086L114.643,35.086z M115.061,32.099L115.061,32.099v0.042l-0.76,0.81h-0.533
			l0.533-0.852H115.061L115.061,32.099z M114.643,35.462L114.643,35.462l-0.154,0.118l-0.176,0.106
			c-0.074,0.033-0.154,0.06-0.236,0.075c-0.084,0.018-0.174,0.023-0.27,0.023c-0.232,0-0.426-0.07-0.578-0.213
			c-0.156-0.144-0.234-0.323-0.234-0.545c0-0.178,0.039-0.324,0.117-0.438c0.08-0.111,0.191-0.201,0.338-0.264
			c0.145-0.063,0.322-0.11,0.535-0.139c0.215-0.029,0.434-0.047,0.666-0.06v-0.015c0-0.135-0.059-0.227-0.164-0.275
			c-0.111-0.053-0.273-0.078-0.486-0.078c-0.129,0-0.264,0.021-0.41,0.068c-0.146,0.045-0.252,0.08-0.314,0.104h-0.07v-0.586
			c0.08-0.021,0.217-0.048,0.402-0.076c0.184-0.031,0.367-0.045,0.557-0.045c0.438,0,0.762,0.068,0.957,0.206
			c0.197,0.135,0.293,0.348,0.293,0.638v1.653h-0.771V35.462z"/>
		<path fill="#FFFFFF" d="M45.252,17.948c-0.98,0-1.746-0.308-2.327-0.917c-0.581-0.61-0.886-1.407-0.886-2.447
			c0-1.041,0.305-1.868,0.917-2.481c0.612-0.641,1.409-0.948,2.418-0.948c0.643,0,1.255,0.123,1.836,0.397
			c0.582,0.277,1.134,0.674,1.714,1.225V6.378c-0.645-0.303-1.283-0.518-1.957-0.669c-0.674-0.156-1.348-0.215-2.053-0.215
			c-1.285,0-2.48,0.215-3.612,0.644c-1.1,0.458-2.081,1.1-2.906,1.958c-0.857,0.825-1.468,1.804-1.928,2.908
			c-0.428,1.1-0.645,2.294-0.645,3.581c0,1.776,0.368,3.306,1.165,4.653c0.768,1.343,1.899,2.443,3.398,3.335
			c0.611,0.333,1.317,0.609,2.081,0.794c0.764,0.18,1.562,0.274,2.386,0.274c0.673,0,1.318-0.062,1.99-0.213
			c0.675-0.123,1.347-0.338,1.99-0.612l0.215-6.486c-0.734,0.579-1.378,0.977-1.991,1.222
			C46.447,17.828,45.835,17.948,45.252,17.948z"/>
		<rect x="97.473" y="12.089" fill="#FFFFFF" width="7.956" height="4.928"/>
		<polygon fill="#FFFFFF" points="72.462,16.695 77.327,16.695 77.327,12.257 72.462,12.257 72.462,10.604 77.82,10.604 
			77.82,5.922 66.494,5.922 66.494,23.181 77.969,23.181 77.969,18.532 72.462,18.532 		"/>
		<path fill-rule="evenodd" clip-rule="evenodd" fill="#FFFFFF" d="M87.01,16.908h2.579l-0.527-1.956
			c-0.26-0.991-0.438-1.754-0.53-2.292c-0.098-0.53-0.155-1.033-0.176-1.504h-0.105c-0.025,0.471-0.086,0.974-0.178,1.504
			c-0.098,0.537-0.272,1.301-0.532,2.292L87.01,16.908L87.01,16.908z M78.781,23.181L78.781,23.181l6.154-17.26h6.91l6.039,17.26
			h-6.674l-0.555-2.168h-4.681l-0.533,2.168H78.781z"/>
		<path fill-rule="evenodd" clip-rule="evenodd" fill="#FFFFFF" d="M131.721,13.33c-0.307,0.276-0.736,0.425-1.316,0.425h-0.98
			v-3.398h0.98c0.58,0,1.01,0.154,1.316,0.461c0.336,0.276,0.486,0.702,0.486,1.253C132.208,12.626,132.057,13.023,131.721,13.33
			L131.721,13.33z M134.721,16.173L134.721,16.173c1.008-0.121,1.803-0.61,2.385-1.409c0.611-0.792,0.887-1.802,0.887-3.027
			c0-1.866-0.58-3.334-1.742-4.316c-1.193-1.012-2.879-1.499-5.113-1.499h-7.682v17.26h5.969v-5.663l3,5.663h6.824L134.721,16.173z"
			/>
		<path fill-rule="evenodd" clip-rule="evenodd" fill="#FFFFFF" d="M115.745,13.236c-0.307,0.244-0.736,0.371-1.318,0.371h-0.949
			v-2.88h0.949c0.551,0,1.012,0.123,1.318,0.369c0.303,0.272,0.455,0.61,0.455,1.071C116.2,12.626,116.048,12.99,115.745,13.236
			L115.745,13.236z M120.274,7.421L120.274,7.421c-1.195-1.012-3.092-1.499-5.631-1.499h-7.316v17.26h6.121v-5.077h1.898
			c2.324,0,4.041-0.464,5.111-1.41c1.039-0.948,1.588-2.417,1.588-4.469C122.046,10.024,121.434,8.43,120.274,7.421z"/>
		<path fill-rule="evenodd" clip-rule="evenodd" fill="#FFFFFF" d="M58.474,13.33c-0.338,0.276-0.764,0.425-1.345,0.425h-0.95
			v-3.398h0.95c0.582,0,1.007,0.154,1.345,0.461c0.307,0.276,0.459,0.702,0.459,1.253C58.933,12.626,58.781,13.023,58.474,13.33
			L58.474,13.33z M61.445,16.173L61.445,16.173c1.01-0.121,1.804-0.61,2.416-1.409c0.583-0.792,0.889-1.802,0.889-3.027
			c0-1.866-0.581-3.334-1.776-4.316c-1.162-1.012-2.876-1.499-5.112-1.499h-7.68v17.26h5.998v-5.663l2.968,5.663h6.858
			L61.445,16.173z"/>
	</g>
	<g>
		<path fill-rule="evenodd" clip-rule="evenodd" fill="#FFFFFF" d="M30.214,34.828c0,0.832-0.674,1.506-1.472,1.506h-11.78
			c-0.766,0-1.47,0.605-1.632,1.213c-0.16-0.607-0.927-1.184-1.63-1.213H1.889c-0.832,0-1.505-0.674-1.505-1.506V6.345h29.83V34.828
			L30.214,34.828z M0,5.959L0,5.959v28.869c0,1.057,0.833,1.92,1.856,1.92h11.747c0.959,0,1.406,0.705,1.728,1.695
			c0.351-1.151,0.866-1.695,1.664-1.695h11.78c1.021,0,1.856-0.863,1.856-1.92V5.959H0z"/>
		<path fill-rule="evenodd" clip-rule="evenodd" fill="#FFFFFF" d="M11.939,34.475c0.194,0.033,0.417,0.097,0.639,0.128l0.416-0.928
			l1.41,0.192l0.191,1.024c0.479,0.03,0.96,0.03,1.44,0l0.194-1.024l1.375-0.192l0.481,0.928c0.447-0.095,0.893-0.227,1.343-0.353
			l-0.065-1.055l1.28-0.546l0.704,0.771c0.417-0.196,0.833-0.449,1.217-0.704l-0.353-0.991l1.121-0.868l0.863,0.574
			c0.354-0.316,0.673-0.668,0.995-1.052l-0.578-0.832l0.865-1.121l0.959,0.319c0.255-0.416,0.512-0.83,0.734-1.248l-0.797-0.672
			l0.545-1.344l1.021,0.064c0.161-0.452,0.29-0.93,0.385-1.379l-0.927-0.447l0.191-1.407l0.991-0.191
			c0.033-0.48,0.033-0.991,0-1.473l-1.024-0.159l-0.158-1.407l0.927-0.482c-0.096-0.482-0.225-0.96-0.385-1.407l-1.021,0.097
			l-0.513-1.315l0.733-0.702c-0.19-0.447-0.447-0.866-0.702-1.279l-0.959,0.383l-0.865-1.151l0.578-0.863
			c-0.322-0.385-0.673-0.705-1.025-1.06l-0.832,0.61l-1.121-0.863l0.319-0.993c-0.383-0.255-0.799-0.511-1.216-0.738l-0.64,0.804
			l-1.312-0.546l0.065-1.057c-0.451-0.158-0.928-0.286-1.377-0.383L17.604,9.1l-1.375-0.196L16.004,7.88
			c-0.48-0.033-0.93-0.033-1.409,0l-0.191,1.024L12.994,9.1l-0.447-0.962c-0.449,0.127-0.928,0.255-1.376,0.383l0.095,1.057
			l-1.313,0.546L9.284,9.32c-0.45,0.227-0.833,0.482-1.249,0.738l0.352,0.993l-1.09,0.863l-0.863-0.575
			c-0.353,0.319-0.705,0.669-1.026,1.024l0.609,0.863l-0.864,1.118L4.16,14.026c-0.255,0.418-0.481,0.832-0.702,1.249l0.765,0.674
			l-0.51,1.343l-1.058-0.064c-0.124,0.447-0.254,0.892-0.35,1.374l0.929,0.452L3.042,20.46l-1.024,0.225v1.438l1.024,0.191
			l0.192,1.376l-0.929,0.478c0.096,0.482,0.226,0.927,0.35,1.409l1.024-0.095l0.544,1.311l-0.765,0.705
			c0.221,0.449,0.478,0.865,0.737,1.248l0.958-0.353l0.833,1.154L5.441,30.41c0.323,0.354,0.641,0.705,0.993,1.021l0.831-0.607
			l1.122,0.901l-0.319,0.991c0.382,0.255,0.797,0.508,1.247,0.734l0.638-0.801l1.313,0.546l-0.063,1.055
			C11.428,34.314,11.681,34.41,11.939,34.475L11.939,34.475z M18.594,30.924L18.594,30.924v0.447
			c-0.19,0.061-0.415,0.158-0.638,0.225v-0.832c0-0.161-0.128-0.322-0.255-0.322c-0.161,0-0.29,0.161-0.29,0.322v0.99
			c-0.19,0.035-0.351,0.066-0.543,0.098v-1.027c0-0.191-0.128-0.383-0.318-0.383c-0.193,0-0.354,0.191-0.354,0.383v1.121
			c-0.16,0-0.287,0-0.447,0.035v-1.156c0-0.191-0.193-0.383-0.383-0.383c-0.225,0-0.416,0.191-0.416,0.383v1.156
			c-0.129,0-0.29-0.035-0.449-0.035v-1.121c0-0.191-0.129-0.383-0.323-0.383c-0.189,0-0.353,0.191-0.353,0.383v1.055
			c-0.156-0.027-0.35-0.059-0.542-0.09v-1.025c0-0.161-0.127-0.322-0.254-0.322c-0.162,0-0.29,0.161-0.29,0.322v0.865
			c-0.225-0.064-0.417-0.164-0.605-0.258v-1.44h6.46V30.924L18.594,30.924z M10.371,28.939L10.371,28.939h9.953l-1.505,0.639h-6.976
			L10.371,28.939L10.371,28.939z M11.106,28.586L11.106,28.586h-0.864v-1.441h2.336h0.065c0.576,0,1.215,0.033,1.856,0.033
			c0.225-0.066,0.449-0.033,0.673,0h0.735c0.127,0,0.287-0.033,0.448,0c0.383-0.033,0.545-0.033,0.865-0.033h0.125
			c0.482,0,0.993,0.033,1.509,0l0.384-0.033c0.734,0,0.734,0,1.181,0.033v1.41c-1.181,0.031-2.368,0.031-3.519,0
			c-0.961,0.031-1.952,0.031-2.883,0.031l-0.16-0.031C12.29,28.586,12.29,28.586,11.106,28.586L11.106,28.586z M13.124,23.945
			L13.124,23.945c-1.475,0.672-1.667,2.049,0,2.081c1.021,0,2.079-0.449,2.657-1.44l0.126,0.191l0.032,0.031l0.096,0.064v0.033
			l-0.031,0.03l-0.033,0.036l-0.19,0.155v0.062l-0.066,0.068c-0.064,0.098-0.097,0.194-0.097,0.289l-0.029,0.094
			c0,0.1-0.033,0.194-0.033,0.289l0.257-0.095l0.065-0.035c-0.129,0.163-0.195,0.323-0.259,0.515
			c-0.991,0.512-2.11,0.67-3.296,0.354C10.049,25.898,11.587,24.234,13.124,23.945L13.124,23.945z M13.314,24.04L13.314,24.04
			l0.065-0.03l0.094,0.158c0.319-0.605-0.127-1.502-0.287-2.14c0.704-0.095,1.217-0.319,1.73-0.834
			c0.092,0.068,0.092,0.13,0.126,0.227c-0.065,0.319-0.161,0.608-0.161,0.958c0.035,0.511,0.642,1.218,0.576,1.567
			C14.756,26.314,10.531,26.026,13.314,24.04L13.314,24.04z M11.939,19.436L11.939,19.436c-0.096-0.064-0.191-0.097-0.191-0.161
			C11.812,19.115,12.26,19.5,11.939,19.436L11.939,19.436z M12.578,18.537L12.578,18.537h-0.031
			c-0.191-0.128-0.128-0.222-0.128-0.418l-0.098-0.121c-0.062-0.132-0.062-0.194,0-0.357c0-0.094-0.223-0.061-0.188-0.191
			c0.188-0.158,0.541-0.127,0.733-0.062l0.162,0.095c0.19,0.13,0.318,0.253,0.383,0.48v0.066H13.38
			c-0.128-0.1-0.255-0.196-0.352-0.26c-0.13-0.033-0.13-0.033-0.13,0.097c0.096,0.132,0.354,0.225,0.354,0.449l-0.065,0.031
			C12.93,18.315,12.802,18.507,12.578,18.537L12.578,18.537z M15.3,19.819L15.3,19.819l-0.127,0.225l0.031-0.097l-0.094,0.064
			l-0.066,0.033v0.028l-0.035,0.068l-0.031,0.029v0.066l-0.029,0.031v0.355l0.029,0.127v0.095l-0.029,0.064h-0.097L14.82,20.94
			l-0.096,0.192c-0.032,0.031-0.065,0.062-0.129,0.13l-0.033,0.031l-0.063,0.031l-0.032,0.033l-0.033,0.031l-0.031,0.033
			l-0.128,0.062l-0.224,0.13c-0.578,0.222-1.154,0.289-1.731,0.127l-0.157-0.031l-0.131-0.066h-0.032l-0.031-0.031h-0.031
			l-0.034-0.033l-0.031-0.033v-0.031h-0.031v-0.033l-0.032-0.031v-0.063l0.032-0.064v-0.062c0-0.068,0.031-0.13,0.031-0.163
			l0.031-0.095v-0.255l-0.062-0.127l-0.032-0.064V20.49l0.032-0.031c0.126-0.066,0.351-0.033,0.512-0.033v-0.127
			c-0.706-0.064-0.578-0.191-0.544-0.416c-0.034-0.097-0.034-0.194-0.064-0.286l-0.032-0.036v-0.033l-0.066-0.062l-0.193-0.191
			v-0.128l0.448-0.705c0.096-0.158,0.162-0.324,0.162-0.513h0.031v-0.031l-0.031-0.194c0-0.064-0.034-0.158-0.034-0.255
			l-0.032-0.158V17.13L12.033,17l0.034-0.028l0.031-0.064l0.066-0.099l0.031-0.031l0.031-0.033l0.034-0.031h0.031l0.031-0.031h0.035
			l0.031-0.033h0.191l0.096,0.033h0.032l0.064,0.031l0.097,0.031l0.063,0.033l0.033,0.031h0.031v0.035h0.034v0.028h0.032
			l0.029,0.036l0.065,0.064h0.032V17h0.032l0.161,0.099l0.032,0.031l0.189,0.097l0.098,0.064l0.032,0.031v0.031l0.063,0.066
			l0.065,0.097l0.032,0.064v0.033l0.065,0.22l0.063,0.196v0.028l0.034,0.033l0.094,0.097l0.031,0.064h0.034l0.032,0.064l0.033,0.031
			l0.063,0.13v0.031c0,0.095,0,0.158,0.032,0.225v0.125l0.033,0.066l0.031,0.092l0.033,0.069l0.032,0.031l0.031,0.033l0.032,0.064
			l0.065,0.031l0.193,0.161l0.063,0.064l0.066,0.033l0.06,0.062l0.065,0.036v0.031h0.035v0.03l0.031,0.064h0.032l0.031,0.13h0.033
			l0.031-0.033H15.3L15.3,19.819z M12.419,14.633L12.419,14.633c1.633,0,3.552,1.792,4.257,3.938
			c-0.193,0.031-0.321,0.094-0.419,0.222c-0.38-0.83-0.862-1.565-1.406-2.173l-0.032,0.125c0.032,0.099,0.129,0.227,0.29,0.385
			c0.126,0.097,0.19,0.223,0.286,0.353c-0.096,0-0.192,0-0.223-0.033v0.13c-0.129-0.097-0.224-0.192-0.29-0.289
			c0,0.127,0.066,0.255,0.192,0.35c0.162,0.128,0.321,0.225,0.481,0.322l0.126,0.156c-0.189,0.068-0.157,0.166,0.033,0.324
			l0.066,0.033c-0.1,0.031-0.13,0.255-0.1,0.381c0.066,0.097,0.13,0.196,0.162,0.321l0.064-0.191l0.16-0.033l0.063,0.1
			c-0.125,0.189,0,0.508,0.099,0.605c-0.194,0.289-0.225,0.608-0.225,0.866c-0.223-0.225-0.323-0.738-0.256-1.024
			c0-0.064-0.033-0.064-0.13-0.033c-0.093,0-0.125-0.064-0.125-0.191c-0.034-0.097-0.16-0.033-0.128,0.064l0.031,0.033l0.129,0.189
			v0.097h-0.129c-0.063-0.097-0.129-0.222-0.16-0.222l-0.063-0.064l-0.164-0.13l-0.157-0.127v-0.062
			c0.031-0.161-0.065-0.291-0.192-0.388l-0.064-0.063l-0.033-0.031c0.097-0.095,0.258-0.128,0.355-0.033
			c0.092,0.099,0.157,0.225,0.192,0.416c0.126-0.161,0.094-0.352-0.066-0.478c-0.161,0-0.288-0.033-0.352-0.066
			c-0.097-0.094-0.033-0.222,0.095-0.194c0.191,0.1,0.13-0.158-0.063-0.158l-0.194,0.033c-0.126,0.028-0.254,0-0.319-0.092
			c0.097-0.069,0.127-0.166,0.032-0.229c-0.255-0.189-0.127-0.381,0.096-0.35l0.192,0.097c0.097,0.064,0.129-0.033,0.032-0.097
			c-0.063-0.066-0.158-0.127-0.254-0.161l-0.097-0.159c-0.096,0.095-0.193,0.128-0.32,0.128C13.698,17.194,13.762,17,13.955,17
			c0.097,0,0.063-0.062,0-0.062c-0.097,0.033-0.162,0.062-0.225,0.095c-0.097,0-0.191-0.033-0.257-0.125
			c-0.032-0.099-0.032-0.194-0.032-0.289l0.127-0.063c-0.096-0.097-0.255-0.097-0.48-0.066h-0.16
			c0.064-0.161,0.16-0.289,0.353-0.289c-0.193-0.062-0.353-0.062-0.48,0.064c-0.191-0.064-0.35,0-0.447,0.161H12.26
			c-0.162-0.449,0-0.671,0.352-0.735c-0.064,0.194,0,0.286,0.191,0.194l0.258-0.033l0.126,0.097
			c0.065,0.028,0.127,0.062,0.225,0.062l0.447,0.066l0.065,0.125l0.095,0.064h0.097c0,0.194,0.127,0.291,0.319,0.291
			c-0.064,0.253,0.065,0.383,0.257,0.416l-0.065-0.227v-0.319c-0.671-0.638-1.375-0.96-2.113-0.991
			C12.514,15.113,12.483,14.858,12.419,14.633L12.419,14.633z M16.932,18.601L16.932,18.601l-0.066-0.192l-0.096-0.291l-0.127-0.286
			l-0.129-0.253l-0.126-0.258l-0.13-0.255l-0.158-0.258l-0.16-0.22l-0.158-0.227l-0.164-0.191l-0.19-0.222l-0.192-0.194
			l-0.162-0.161l-0.192-0.158l-0.19-0.161l-0.192-0.161l-0.224-0.127l-0.193-0.128l-0.16-0.063c4.384-1.474,6.849,4.29,3.422,5.763
			l-0.031-0.258l-0.031-0.353l-0.063-0.319c0.094-0.128,0.125-0.256,0.125-0.417C17.345,18.923,17.189,18.698,16.932,18.601
			L16.932,18.601z M13.698,13.865L13.698,13.865c3.808-1.44,7.106,2.05,5.346,5.058v-0.031l0.095-0.291l0.033-0.317v-0.286
			l-0.033-0.324l-0.063-0.321l-0.066-0.286l-0.094-0.289l-0.129-0.319l-0.161-0.258l-0.193-0.286l-0.19-0.255l-0.224-0.258
			l-0.255-0.222l-0.259-0.194l-0.286-0.191l-0.288-0.161l-0.352-0.125l-0.323-0.1l-0.35-0.064l-0.383-0.031H15.14l-0.416,0.031
			l-0.417,0.1l-0.417,0.125C13.923,14.475,13.858,14.153,13.698,13.865L13.698,13.865z M12.769,13.321L12.769,13.321
			c3.459-2.686,9.154,0.452,7.586,5.955c-0.096,0.383-0.351,0.608-0.289,1.185c0.227,0.802-0.607,1.984-0.127,3.008
			c-0.639-0.097-0.929-0.802-0.768-1.376c0.096-0.48,0.066-0.799-0.096-1.121c-0.129-0.447-0.354-0.735-0.098-1.185
			c0.161-0.031,0.355-0.097,0.481-0.031l0.064,0.064l0.065-0.097l-0.065-0.033c-0.16-0.061-0.19-0.286-0.255-0.414l0.033-0.033
			c0.128-0.064,0.319-0.127,0.447-0.095l0.094,0.031l0.032-0.063l-0.092-0.031c-0.131-0.069-0.225-0.255-0.259-0.386v-0.033
			c0.127-0.063,0.288-0.189,0.449-0.158l0.063,0.031l0.031-0.095h-0.094c-0.13-0.064-0.225-0.227-0.322-0.352v-0.033
			c0.131-0.095,0.289-0.225,0.416-0.225l0.097,0.033v-0.097H20.1c-0.161-0.033-0.289-0.189-0.384-0.319
			c0.096-0.127,0.224-0.286,0.384-0.286h0.097l-0.033-0.097H20.1c-0.161,0.033-0.289-0.128-0.416-0.223v-0.035
			c0.098-0.125,0.19-0.286,0.352-0.319l0.064-0.031v-0.097l-0.096,0.033c-0.162,0.031-0.32-0.095-0.447-0.161v-0.033
			c0.063-0.125,0.158-0.317,0.285-0.383l0.066-0.031l-0.034-0.062l-0.063,0.028c-0.161,0.033-0.321-0.064-0.479-0.128
			c0.062-0.127,0.096-0.352,0.225-0.416l0.093-0.031l-0.063-0.097l-0.065,0.031c-0.129,0.097-0.319,0.033-0.479,0
			c0.032-0.158,0.032-0.383,0.16-0.48l0.064-0.033l-0.064-0.092l-0.065,0.061c-0.129,0.097-0.319,0.064-0.479,0.064
			c0-0.158-0.033-0.383,0.095-0.48v-0.031l0.033-0.031l-0.065-0.066l-0.032,0.066c-0.128,0.092-0.322,0.092-0.48,0.123v-0.031
			c-0.032-0.127-0.063-0.35,0-0.478l0.063-0.064l-0.063-0.031l-0.063,0.062c-0.097,0.127-0.29,0.161-0.416,0.191H17.7
			c-0.031-0.158-0.13-0.352-0.064-0.478v-0.033l0.033-0.064l-0.065-0.033l-0.035,0.063c-0.063,0.164-0.255,0.227-0.414,0.258
			c-0.065-0.127-0.162-0.321-0.129-0.449l0.032-0.095l-0.097-0.033l-0.03,0.094c-0.032,0.161-0.225,0.258-0.352,0.324
			c-0.097-0.13-0.225-0.291-0.193-0.452v-0.095h-0.1v0.066c-0.031,0.156-0.189,0.286-0.317,0.38
			c-0.094-0.127-0.256-0.255-0.256-0.416v-0.097h-0.064l-0.033,0.097c0,0.161-0.125,0.289-0.253,0.385
			c-0.098-0.097-0.291-0.225-0.291-0.385v-0.062h-0.096v0.097c0.031,0.156-0.126,0.317-0.222,0.414
			c-0.129-0.064-0.289-0.194-0.321-0.319v-0.033l-0.031-0.062l-0.096,0.028l0.031,0.066c0.032,0.159-0.096,0.319-0.162,0.45
			c-0.125-0.064-0.318-0.164-0.383-0.291l-0.031-0.097l-0.064,0.033l0.032,0.097c0.032,0.127-0.063,0.321-0.13,0.447l-0.031-0.031
			C13.474,13.512,13.124,13.387,12.769,13.321L12.769,13.321z M15.781,23.529L15.781,23.529c0.286,0.066,0.507,0.225,0.733,0.547
			l-0.159-0.194c-0.098-0.063-0.256-0.097-0.416-0.097L15.781,23.529L15.781,23.529z M16.229,21.675L16.229,21.675l-0.194-0.225
			c-0.223,0.289-0.254,0.608-0.064,0.927c-0.063,0.319,0,0.546,0.192,0.577l-0.033-0.258l0.127,0.191
			c0.031,0.097,0.064,0.066,0.098-0.028c0.063-0.225-0.034-0.482-0.192-0.738h0.125l0.033-0.289l0.515,0.449
			c0.509,0.128,0.929,0.544,0.833,0.96c-0.259-0.546-1.412-1.024-0.931-0.161c0.194,0.225,0.451,0.354,0.8,0.386
			c-0.129-0.063-0.194-0.128-0.225-0.225c0.609,0.225,0.93,0.511,0.833,0.863c-0.256-0.288-0.448,0.03-0.225,0.222
			c0.162,0.033,0.288,0.129,0.351,0.258c0.226,0.447,0.48,0.866,0.833,0.866c-0.031-0.159-0.063-0.263-0.19-0.357
			c-0.129-0.062-0.226-0.158-0.256-0.317c-0.033-0.094-0.097-0.191-0.16-0.222c-0.066-0.228-0.131-0.388-0.162-0.449V24.01
			l-0.16-0.191V23.69l0.032-0.063c0.223,0.158,0.383,0.318,0.352,0.671c-0.031,0.095-0.031,0.159,0.031,0.258l0.161-0.065
			c-0.032-0.098-0.032-0.192,0.065-0.256l-0.065-0.128c-0.128-0.577-0.417-0.863-0.799-1.088c-0.097-0.063-0.064-0.13,0.033-0.13
			c0.223-0.062,0.415,0.066,0.575,0.451c0.192,0.096,0.291,0.189,0.257,0.287c0.034,0.158,0.097,0.318,0.19,0.479
			c0,0.161,0.034,0.286,0.097,0.449l-0.031,0.284c0.063,0.385,0.414,0.324,0.318-0.063c-0.094-0.16-0.094-0.287-0.094-0.385
			c0.257,0.354,0.35,0.771,0.35,1.314c-0.063,0.705-0.447,0.736-0.287,0.256l0.096-0.355c-0.031-0.03-0.126,0.069-0.255,0.261
			l0.034,0.414c0.03,0.511-0.322,0.511-0.291,0l0.031-0.605c-0.031-0.288-0.318-0.225-0.255,0.063
			c-0.222-0.1-0.384-0.352-0.415-0.804h-0.033c-0.189,0.388-0.189,0.641,0,0.74l0.448,0.317c0.131,0.129,0.065,0.225-0.129,0.129
			c0.384,1.183-0.797,0.797-0.702,0.031c-0.095-0.064-0.191-0.095-0.287-0.031c0.127,0.096,0.161,0.191,0.127,0.289
			c-0.417-0.066-0.609-1.023-0.286-1.284c-0.162-0.095-0.256-0.191-0.29-0.351c-0.033-0.255-0.32-0.385-0.513-0.543
			c0.193,0.256,0.384,0.513,0.577,0.799c0.063,0.191,0.033,0.383-0.097,0.574c-0.129,0.291,0.033,0.675,0.383,0.963
			c-0.223,0.289-1.249,0.35-0.926-0.191c0.032-0.13,0.127-0.289,0.286-0.416l0.127-0.355l-0.032-0.03
			c-0.096,0.258-0.192,0.449-0.35,0.546c-0.194,0.159-0.291,0.351-0.291,0.545c-0.509,0.191-0.797,0.158-0.894-0.036l0.254-0.095
			c0.066-0.288,0.226-0.574,0.576-0.83c0.226-0.16,0.386-0.383,0.513-0.641c-0.287-0.383-0.513-0.738-0.671-1.154
			c-0.095,0.033-0.128,0.098-0.095,0.256c0.095,0.225,0.225,0.449,0.351,0.672c0.128,0.288-0.098,0.576-0.384,0.612
			c-0.094,0.188-0.223,0.288-0.32,0.319c0-0.225,0.097-0.383,0.257-0.582c0.097-0.062,0.222-0.188,0.321-0.35l-0.034-0.123
			c-0.447-0.194-0.67-0.835-0.64-1.249l-0.031-0.319c-0.066-0.03-0.16,0-0.225,0.095c-0.097-0.288-0.16-0.607-0.064-0.993
			c0.031-0.158,0.223-0.447,0.097-1.087c-0.033-0.223,0-0.447,0-0.575c-0.866-0.48,0.382-1.44,0.255-0.194
			C15.971,20.588,16.099,21.098,16.229,21.675L16.229,21.675z M17.765,21.708L17.765,21.708c0.604,0.062,0.286,1.374-0.259,0.575
			c0.033-0.097,0.033-0.13,0.098-0.161c0,0.191,0.287,0.255,0.351,0c0.13-0.353-0.576-0.608-0.672,0.127
			c-0.671-0.158-1.376-1.535-0.896-2.431c-0.032,0.097,0.225,1.92,1.282,1.856c0-0.13,0.031-0.352-0.13-0.383
			c-0.093,0.031-0.093,0.031-0.129,0.127c-0.19-0.158,0.066-0.449,0.226-0.352C17.827,21.132,17.891,21.323,17.765,21.708
			L17.765,21.708z M16.739,18.762L16.739,18.762c0.224,0,0.417,0.191,0.417,0.449c0,0.255-0.194,0.447-0.417,0.447
			c-0.255,0-0.451-0.191-0.451-0.447C16.288,18.953,16.483,18.762,16.739,18.762L16.739,18.762z M16.739,19.015L16.739,19.015
			c0.097,0,0.194,0.069,0.194,0.196c0,0.128-0.097,0.225-0.194,0.225c-0.126,0-0.225-0.097-0.225-0.225
			C16.514,19.084,16.612,19.015,16.739,19.015L16.739,19.015z M16.994,19.786L16.994,19.786c0.065,0.286,0.097,0.577,0.129,0.863
			l-0.319,0.132c-0.065-0.322-0.127-0.641-0.191-0.929h0.126C16.836,19.852,16.901,19.852,16.994,19.786L16.994,19.786z
			 M11.748,29.994L11.748,29.994v1.377l-0.482-0.191l-0.48-0.225l-0.447-0.225l-0.417-0.256l-0.446-0.289l-0.385-0.288l-0.418-0.319
			l-0.381-0.321l-0.356-0.351l-0.35-0.385l-0.32-0.383l-0.318-0.414l-0.578-0.835l-0.224-0.446L5.89,25.994l-0.194-0.48l-0.191-0.48
			l-0.159-0.511L5.186,24.04l-0.097-0.511l-0.097-0.511L4.93,22.503l-0.064-0.542v-1.087l0.064-0.542l0.062-0.546l0.097-0.511
			l0.097-0.513l0.161-0.511l0.159-0.516l0.191-0.478l0.194-0.449l0.255-0.48l0.224-0.445l0.286-0.418l0.292-0.416l0.318-0.417
			l0.32-0.383l0.35-0.353l0.356-0.385l0.381-0.319l0.418-0.319l0.385-0.289l0.446-0.289l0.417-0.255l0.447-0.225l0.48-0.222
			l0.482-0.194l0.478-0.159l0.48-0.161l0.513-0.095l0.512-0.097l0.545-0.066l0.511-0.064h1.09l0.511,0.064l0.513,0.066l0.509,0.097
			l0.513,0.095l0.511,0.161l0.482,0.159l0.478,0.194l0.448,0.222l0.452,0.225l0.445,0.255l0.418,0.289l0.416,0.289l0.382,0.319
			l0.384,0.319l0.353,0.385l0.355,0.353l0.316,0.383l0.322,0.417l0.289,0.416l0.255,0.418l0.254,0.445l0.227,0.48l0.225,0.449
			l0.19,0.478l0.159,0.516l0.129,0.511l0.127,0.513l0.097,0.511l0.063,0.546l0.031,0.542l0.034,0.546l-0.034,0.542l-0.031,0.542
			l-0.063,0.516l-0.097,0.511l-0.127,0.511l-0.129,0.482l-0.159,0.511l-0.19,0.48l-0.225,0.48l-0.227,0.449l-0.254,0.446
			l-0.255,0.416l-0.289,0.419l-0.322,0.414l-0.316,0.383l-0.355,0.385l-0.353,0.351l-0.766,0.641l-0.416,0.288l-0.418,0.289
			l-0.445,0.256l-0.452,0.225l-0.448,0.225l-0.417,0.16v-1.346l1.857-0.86c0.097-0.068,0.128-0.194,0.064-0.354l-0.064-0.225v-1.443
			c0-0.191-0.063-0.285-0.255-0.285h-0.738c-0.285,0-0.352-0.158-0.126-0.447c0.351-0.927,0.126-1.856-0.738-2.85
			c-0.19-0.062-0.318-0.158-0.318-0.478c-0.066-0.386-0.193-0.674-0.386-0.865c0-0.286-0.096-0.705-0.286-0.736l0.032-0.127
			l-0.097-0.13c0.032-0.161,0.032-0.319-0.032-0.445c0.287-0.161,0.542-0.385,0.769-0.641c-0.033,0.158,0,0.286,0.031,0.416
			c0.032,0.225,0.097,0.383,0.163,0.575c0.156,0.289,0.124,0.671,0.063,1.121c-0.031,0.383,0.031,0.736,0.223,0.992
			c0.32,0.352,0.735,0.574,1.121,0.479c-0.16-0.479-0.063-1.151,0.065-1.693l0.064-0.385l-0.033-1.152
			c0.033-0.194,0.064-0.388,0.16-0.577l0.161-0.544c1.631-6.465-5.311-9.215-8.481-5.855c0.575,0.127,1.057,0.288,1.375,0.73
			c0.193,0.26,0.064,0.418-0.158,0.322c-0.065,0-0.322-0.062-0.609-0.128c-0.129-0.031-0.289-0.064-0.383-0.064h-0.063l-0.035,0.033
			h-0.096l-0.031,0.031h-0.031l-0.031,0.036l-0.035,0.031v0.062l0.035,0.063v0.033l0.062,0.125l0.031,0.099l0.034,0.064v0.095
			l0.031,0.097v0.353l-0.031,0.097l-0.126,0.128l-0.035,0.064l-0.031,0.064l-0.034,0.033l-0.032,0.064v0.062L11.97,16.01v0.319
			l0.031,0.066v0.064l0.032,0.097l0.034,0.033v0.062l-0.034,0.064l-0.032,0.064l-0.031,0.031l-0.031,0.063l-0.034,0.036v0.031
			L11.874,17v0.099l-0.031,0.031v0.192l0.031,0.031v0.097c0,0.097,0.031,0.163,0.031,0.225v0.095l0.034,0.036v0.158l-0.034,0.066
			v0.062l-0.031,0.066l-0.063,0.159l-0.13,0.161c-0.032,0.095-0.063,0.161-0.127,0.222c-0.063,0.13-0.161,0.255-0.255,0.386v0.031
			l-0.033,0.063v0.128l0.033,0.033l0.032,0.033v0.031l0.031,0.033c0.067,0.031,0.13,0.092,0.193,0.161l0.065,0.061v0.161v0.191v0.13
			l0.031,0.029v0.066h0.032v0.031h0.035v0.033h0.032v0.033l-0.032,0.031l-0.035,0.031v0.033H11.65v0.194l0.032,0.028l0.035,0.066
			l0.032,0.033v0.191l-0.032,0.128v0.031l-0.066,0.163v0.284l0.032,0.066l0.035,0.031l0.032,0.033l0.03,0.033l0.034,0.031
			l0.063,0.031l0.065,0.033l0.062,0.031l0.066,0.033l0.066,0.033h0.062l0.126,0.033l0.098,0.028l0.128,0.036h0.126l0.129,0.031
			h0.258c0,0.064,0.029,0.125,0.064,0.191c0.063,0.128,0.094,0.255,0.127,0.417v0.03c0.063,0.194,0.095,0.416,0.128,0.674
			c0.032,0.128,0,0.223-0.128,0.223c-0.674,0.256-1.282,0.544-1.731,0.895c-0.701,0.576-0.894,1.22-0.286,2.017
			c0.126,0.222,0.031,0.353-0.222,0.353l-0.867-0.033c-0.224,0-0.32,0.097-0.29,0.291l0.033,1.021c0,0.225-0.033,0.416-0.094,0.576
			c-0.097,0.194-0.097,0.384,0.031,0.48L11.748,29.994L11.748,29.994z M15.333,10.377L15.333,10.377
			c5.951,0,10.784,4.961,10.784,11.043c0,6.016-4.833,10.975-10.784,10.975c-5.957,0-10.82-4.959-10.82-10.975
			C4.513,15.338,9.376,10.377,15.333,10.377L15.333,10.377z M17.379,8.681L17.379,8.681l0.448-0.96
			c0.673,0.125,1.344,0.322,1.984,0.544L19.748,9.32l0.801,0.355l0.67-0.802c0.609,0.289,1.186,0.641,1.761,1.024l-0.32,1.026
			l0.703,0.542l0.833-0.608c0.515,0.416,0.995,0.929,1.441,1.473l-0.578,0.863l0.546,0.735l0.958-0.381
			c0.384,0.575,0.738,1.183,1.025,1.79l-0.77,0.738l0.319,0.797l1.058-0.094c0.224,0.641,0.417,1.313,0.545,2.015l-0.961,0.482
			l0.128,0.894l1.025,0.194c0.063,0.669,0.063,1.376,0,2.048l-1.025,0.225l-0.128,0.862l0.961,0.447
			c-0.129,0.705-0.322,1.379-0.545,1.984l-1.026-0.031l-0.352,0.797l0.803,0.705c-0.321,0.641-0.674,1.251-1.028,1.795l-0.989-0.353
			l-0.546,0.705l0.609,0.862c-0.447,0.545-0.927,1.055-1.439,1.469l-0.896-0.572l-0.673,0.545l0.352,0.992
			c-0.576,0.416-1.15,0.767-1.76,1.057l-0.703-0.799l-0.801,0.319l0.094,1.088c-0.67,0.222-1.31,0.414-1.984,0.509l-0.479-0.958
			l-0.865,0.128l-0.159,1.057c-0.705,0.064-1.377,0.064-2.048,0l-0.225-1.057l-0.864-0.098l-0.449,0.963
			c-0.671-0.13-1.313-0.322-1.95-0.544l0.064-1.088l-0.8-0.319L9.376,33.9c-0.605-0.29-1.182-0.641-1.757-1.025l0.349-1.023
			l-0.703-0.545l-0.864,0.607c-0.511-0.449-0.993-0.959-1.44-1.473l0.577-0.894l-0.513-0.705l-0.992,0.353
			c-0.382-0.577-0.734-1.154-1.025-1.76l0.803-0.74l-0.353-0.827l-1.025,0.095c-0.223-0.639-0.415-1.313-0.544-1.984l0.928-0.48
			l-0.096-0.862l-1.024-0.192c-0.066-0.674-0.066-1.376,0-2.081l1.024-0.194l0.096-0.894l-0.928-0.447
			c0.129-0.672,0.287-1.346,0.512-2.02l1.057,0.063l0.353-0.797l-0.803-0.705c0.291-0.612,0.61-1.218,0.994-1.792l1.024,0.35
			l0.513-0.702L4.961,12.33c0.416-0.513,0.896-0.991,1.44-1.473l0.864,0.608l0.703-0.542L7.586,9.93
			c0.546-0.383,1.12-0.736,1.76-1.057l0.738,0.802l0.8-0.355l-0.098-1.055c0.643-0.222,1.313-0.418,1.953-0.544l0.48,0.993
			l0.864-0.127l0.193-1.057c0.673-0.064,1.375-0.064,2.045,0l0.193,1.057L17.379,8.681z"/>
	</g>
</g>
</svg>
